<svg xmlns="http://www.w3.org/2000/svg" viewBox="0 0 2226.22 4858.2"><defs><style>.cls-1{fill:#a17eb8;opacity:0.5;}.cls-2{fill:#bc92c3;opacity:0.38;}.cls-3,.cls-4,.cls-5,.cls-6{fill:#67a9dd;}.cls-3{opacity:0.57;}.cls-4{opacity:0.24;}.cls-6{opacity:0.29;}.cls-7{fill:#a185bd;}.cls-8{font-size:74px;fill:#625ca5;font-family:OCRAStd, OCR A Std;}</style></defs><title>plano</title><g id="Capa_2" data-name="Capa 2"><g id="Capa_1-2" data-name="Capa 1"><polyline class="cls-1" points="1681.93 28.22 1681.93 1176.92 451.16 1176.92 451.16 28.22"/><polyline class="cls-2" points="0 3862.1 0 4858.2 1833.18 4858.2 1833.18 4288.14 2052.2 4069.12 1682.42 3595.07 1682.42 2965.01 702.07 2965.01 702.07 1728.89 427.66 1728.89 427.66 2965.01 0 2965.01 0 3293.54 0 3424.06 547.63 3424.06 601.62 3424.06 601.62 3806.18 601.62 3862.1"/><polyline class="cls-3" points="702.07 1176.92 702.07 2965.01 1682.42 2965.01 1682.42 1176.92"/><polyline class="cls-3" points="1682.42 2965.01 1682.42 3595.07 1966.07 3958.7 2226.22 3757.09 2155.31 3662.2 2151.22 2965.01"/><polyline class="cls-4" points="0 1760.58 0 2965.01 427.66 2965.01 427.66 1728.89 0 1728.89 702.07 1728.89 702.07 1176.92 1682.42 1176.92 1682.42 0 0 0"/><path class="cls-5" d="M0,3424.06"/><polyline class="cls-6" points="0 3424.06 0 3862.1 601.62 3862.1 601.62 3424.06"/><circle class="cls-7" cx="193.1" cy="4668.95" r="65.2"/><circle class="cls-7" cx="767.27" cy="4668.95" r="65.2"/><circle class="cls-7" cx="1347.45" cy="4668.95" r="65.2"/><circle class="cls-7" cx="187.09" cy="2775.76" r="65.2"/><circle class="cls-7" cx="761.26" cy="2775.76" r="65.2"/><circle class="cls-7" cx="1341.44" cy="2775.76" r="65.2"/><circle class="cls-7" cx="174.18" cy="2136.17" r="65.2"/><circle class="cls-7" cx="748.36" cy="2136.17" r="65.2"/><circle class="cls-7" cx="1328.54" cy="2136.17" r="65.2"/><circle class="cls-7" cx="190.09" cy="1503.68" r="65.2"/><circle class="cls-7" cx="764.26" cy="1503.68" r="65.2"/><circle class="cls-7" cx="1344.45" cy="1503.68" r="65.2"/><circle class="cls-7" cx="177.19" cy="922.47" r="65.2"/><circle class="cls-7" cx="751.36" cy="922.47" r="65.2"/><circle class="cls-7" cx="1331.54" cy="922.47" r="65.2"/><circle class="cls-7" cx="177.19" cy="399.21" r="65.2"/><circle class="cls-7" cx="751.36" cy="399.21" r="65.2"/><circle class="cls-7" cx="1331.54" cy="399.21" r="65.2"/><circle class="cls-7" cx="180.2" cy="4053.11" r="65.2"/><circle class="cls-7" cx="754.37" cy="4053.11" r="65.2"/><circle class="cls-7" cx="1334.55" cy="4053.11" r="65.2"/><circle class="cls-7" cx="1872.01" cy="4053.11" r="65.2"/><circle class="cls-7" cx="180.2" cy="3424.06" r="65.2"/><circle class="cls-7" cx="754.37" cy="3424.06" r="65.2"/><circle class="cls-7" cx="1334.55" cy="3424.06" r="65.2"/><circle class="cls-7" cx="1872.01" cy="3424.06" r="65.2"/><text class="cls-8" transform="translate(127.9 4567.37)">0,0</text><text class="cls-8" transform="translate(683.16 4567.37)">0,1</text><text class="cls-8" transform="translate(1282.25 4567.37)">0,2</text><text class="cls-8" transform="translate(124.89 2679.37)">3,0</text><text class="cls-8" transform="translate(680.15 2679.37)">3,1</text><text class="cls-8" transform="translate(1279.25 2679.37)">3,2</text><text class="cls-8" transform="translate(124.89 2047.37)">4,0</text><text class="cls-8" transform="translate(680.15 2047.37)">4,1</text><text class="cls-8" transform="translate(1279.25 2047.37)">4,2</text><text class="cls-8" transform="translate(127.9 1375.37)">5,0</text><text class="cls-8" transform="translate(683.16 1375.37)">5,1</text><text class="cls-8" transform="translate(1282.25 1375.37)">5,2</text><text class="cls-8" transform="translate(124.89 799.37)">6,0</text><text class="cls-8" transform="translate(680.15 799.37)">6,1</text><text class="cls-8" transform="translate(1279.25 799.37)">6,2</text><text class="cls-8" transform="translate(124.89 307.37)">7,0</text><text class="cls-8" transform="translate(680.15 307.37)">7,1</text><text class="cls-8" transform="translate(1279.25 307.37)">7,2</text><text class="cls-8" transform="translate(124.89 3931.37)">1,0</text><text class="cls-8" transform="translate(680.15 3931.37)">1,1</text><text class="cls-8" transform="translate(1279.25 3931.37)">1,2</text><text class="cls-8" transform="translate(1779.25 3931.37)">1,3</text><text class="cls-8" transform="translate(124.89 3315.37)">2,0</text><text class="cls-8" transform="translate(680.15 3315.37)">2,1</text><text class="cls-8" transform="translate(1279.25 3315.37)">2,2</text><text class="cls-8" transform="translate(1779.25 3315.37)">2,3</text></g></g></svg>